<svg viewBox="0 0 875 302" fill="none" xmlns="http://www.w3.org/2000/svg">
<path d="M202.1 109.2C198.9 102.2 174.5 96.7002 144.8 96.7002C115.1 96.7002 96.7999 102.2 93.5999 109.2C93.2217 109.794 93.079 110.507 93.1999 111.2L109 222.9C108.996 223.04 109.03 223.179 109.1 223.3C109.4 227.3 112.7 231.7 122.5 234L109.3 133.3C109.3 133.3 112.4 135.2 123.2 134.9C124.2 149.4 131.3 218.4 133 235.2C136.8 235.5 140.8 235.7 144.9 235.7C167.7 235.7 186.2 230.2 186.7 223.3C186.7 223.2 186.8 223.1 186.8 222.9L202.6 111.2C202.588 110.504 202.417 109.82 202.1 109.2Z" fill="#72BE44"/>
<path d="M112.5 75.3003H97.0999V90.7003H112.5V75.3003Z" fill="#231F20"/>
<path d="M97.4999 59.9004H82.0999V75.3004H97.4999V59.9004Z" fill="#231F20"/>
<path d="M156.9 116H141.5V131.4H156.9V116Z" fill="#231F20"/>
<path d="M97.4999 203.7H82.0999V219.1H97.4999V203.7Z" fill="#231F20"/>
<path d="M170.3 245.3H154.9V260.7H170.3V245.3Z" fill="#231F20"/>
<path d="M176.2 177.6H160.8V193H176.2V177.6Z" fill="#231F20"/>
<path d="M227.6 121.1H212.2V136.5H227.6V121.1Z" fill="#231F20"/>
<path d="M243 136.5H227.6V151.9H243V136.5Z" fill="#231F20"/>
<path d="M70.0999 146.4H54.7V161.8H70.0999V146.4Z" fill="#231F20"/>
<path d="M101.1 131H70.2V146.4H101.1V131Z" fill="#72BE44"/>
<path d="M128 59.9004H97.0999V75.3004H128V59.9004Z" fill="#72BE44"/>
<path d="M154.8 58.7002H139.4V74.1002H154.8V58.7002Z" fill="#72BE44"/>
<path d="M70.0999 99.8003H54.7V115.2H70.0999V99.8003Z" fill="#72BE44"/>
<path d="M227.6 167.5H212.2V182.9H227.6V167.5Z" fill="#72BE44"/>
<path d="M160.7 193H145.3V208.4H160.7V193Z" fill="#DEE34D"/>
<path d="M81.9999 203.7H66.5999V219.1H81.9999V203.7Z" fill="#DEE34D"/>
<path d="M243 151.8H227.6V167.2H243V151.8Z" fill="#DEE34D"/>
<path d="M243 106.4H227.6V121.8H243V106.4Z" fill="#DEE34D"/>
<path d="M97.4999 44.4004H82.0999V59.8004H97.4999V44.4004Z" fill="#DEE34D"/>
<path d="M185.4 245.3H170V260.7H185.4V245.3Z" fill="#DEE34D"/>
<path d="M70.0999 115H54.7V130.4H70.0999V115Z" fill="#DEE34D"/>
<path d="M172 131.2H156.6V146.6H172V131.2Z" fill="#DEE34D"/>
<path d="M128 85.6001H112.6V106.2H128V85.6001Z" fill="#72BE44"/>
<path d="M107.8 149.4C107.8 149.4 113.7 155.3 127.7 153.2C135.1 156.6 131.3 158.9 131.3 158.9L132.3 173.2C132.4 174.4 120.4 175.6 109.3 169.9C99.2 164.8 107.8 149.4 107.8 149.4Z" fill="#72BE44"/>
<path d="M108.6 188.3H82.0999V203.7H108.6V188.3Z" fill="#72BE44"/>
<path d="M104.8 146.4H89.3999V161.8H104.8V146.4Z" fill="#231F20"/>
<path d="M211.5 91.6002C206.759 89.1704 201.714 87.3878 196.5 86.3002C183.8 83.3002 167 81.7002 149.2 81.7002C131.4 81.7002 114.5 83.3002 101.9 86.3002C96.6899 87.4045 91.6471 89.1863 86.8999 91.6002C82.3999 94.1002 80.0999 97.1002 80.0999 100.5C80.1112 101.072 80.1782 101.641 80.2999 102.2L98.9999 231.3C99.0999 234.9 101.8 237.5 104.1 239C107.489 241.173 111.202 242.793 115.1 243.8C124.3 246.5 136.4 248 149.3 248C162.2 248 174.3 246.5 183.5 243.8C187.382 242.749 191.089 241.132 194.5 239C196.8 237.4 199.5 234.8 199.6 231.2L200.2 225.3L218.3 102.2C218.465 101.615 218.532 101.007 218.5 100.4C218.3 97.2002 216 94.2002 211.5 91.6002ZM116.9 237.7C107.5 234.9 105.5 232 105.5 231.1C105.5 230.2 107.6 227.2 116.9 224.5C125.5 222 137 220.6 149.2 220.6C156.667 220.573 164.124 221.141 171.5 222.3L170.3 234.8C170.3 234.8 169.8 240.2 165 240.8C160 241.3 154.7 241.6 149.2 241.6C136.9 241.6 125.5 240.2 116.9 237.7ZM149.2 214.1C136.4 214.1 124.2 215.6 115 218.3C111.177 219.294 107.533 220.88 104.2 223L88.6999 115.9L88.7999 116.1C88.0999 110.9 90.9999 111.5 91.7999 111.7C95.0601 112.929 98.4014 113.932 101.8 114.7C114.5 117.7 131.3 119.3 149.1 119.3C159.828 119.316 170.548 118.682 181.2 117.4L172 215.9C164.464 214.661 156.837 214.059 149.2 214.1V214.1ZM181.5 237.7C179.9 238.2 178.2 238.6 176.4 239L177 232.6L184.9 236.5C183.79 236.963 182.655 237.364 181.5 237.7V237.7ZM193 230.9V231.1C192.829 231.772 192.443 232.369 191.9 232.8L177.7 225.8L178.3 219.9L193.3 227.3L193 230.9ZM194.2 220.6L178.9 213L179.3 208.8L194.9 216.5L194.2 220.6ZM195.8 209.7L179.9 201.8L180.3 197.6L196.4 205.6L195.8 209.7ZM197.4 198.8L181 190.7L181.5 185.1L198.2 193.4L197.4 198.8ZM199.2 186.7L182.1 178.2L182.5 173.3L199.8 181.9L199.2 186.7ZM200.9 175.2L183.2 166.5L183.8 160.5L201.8 169.4L200.9 175.2ZM202.7 162.7L184.4 153.6L184.8 149.3L203.3 158.5L202.7 162.7ZM204.3 151.8L185.4 142.5L185.8 137.7L204.9 147.2L204.3 151.8ZM206 140.4L186.5 130.8L186.9 126.6L206.6 136.3L206 140.4ZM207.6 129.5L187.6 119.6L187.9 116.3C188.7 116.2 189.4 116 190.1 115.9L208.2 124.9L207.6 129.5ZM209.2 118.2L200.1 113.7C203.657 112.799 207.11 111.525 210.4 109.9L209.2 118.2ZM211.8 100.9C211.2 102.2 207.5 105.5 195.1 108.4C182.9 111.3 166.6 112.9 149.2 112.9C131.8 112.9 115.5 111.3 103.3 108.4C90.7999 105.5 87.0999 102.2 86.5999 100.9L86.4999 100.4C86.6999 99.2002 90.0999 95.8002 103.3 92.7002C115.5 89.8002 131.8 88.2002 149.2 88.2002C166.6 88.2002 182.9 89.8002 195.1 92.7002C208.3 95.8002 211.7 99.2002 211.9 100.4L211.8 100.9Z" fill="#231F20"/>
<path d="M158.3 107.5C158.3 107.5 133.2 57.3002 176.1 40.2002C194.2 80.2002 158.3 107.5 158.3 107.5Z" fill="#72BE44"/>
<path d="M158.6 106.5C158.6 106.5 171.3 56.2001 217.8 75.0001C206.1 113.7 158.6 106.5 158.6 106.5Z" fill="#72BE44"/>
<path d="M212.6 77.3003L168.8 98.6003C168.7 98.6003 188.6 73.0003 212.6 77.3003Z" fill="#DEE34D"/>
<path d="M172.8 56.4004L161 97.3004C161 97.3004 181.8 80.1004 172.8 56.4004Z" fill="#DEE34D"/>
<path d="M317.1 213C315.42 213 313.964 212.384 312.732 211.152C311.5 209.92 310.884 208.464 310.884 206.784V107.16C310.884 105.48 311.5 104.024 312.732 102.792C313.964 101.56 315.42 100.944 317.1 100.944C318.78 100.944 320.208 101.56 321.384 102.792C322.616 104.024 323.232 105.48 323.232 107.16V150.084H392.448V107.16C392.448 105.48 393.036 104.024 394.212 102.792C395.388 101.56 396.844 100.944 398.58 100.944C400.26 100.944 401.716 101.56 402.948 102.792C404.18 104.024 404.796 105.48 404.796 107.16V206.784C404.796 208.464 404.18 209.92 402.948 211.152C401.716 212.384 400.26 213 398.58 213C396.844 213 395.388 212.384 394.212 211.152C393.036 209.92 392.448 208.464 392.448 206.784V162.432H323.232V206.784C323.232 208.464 322.616 209.92 321.384 211.152C320.208 212.384 318.78 213 317.1 213ZM471.873 213C459.273 213 449.977 210.032 443.985 204.096C438.049 198.104 435.081 188.808 435.081 176.208V137.568C435.081 124.856 438.049 115.56 443.985 109.68C449.977 103.744 459.245 100.832 471.789 100.944H492.033C504.633 100.944 513.901 103.912 519.837 109.848C525.773 115.784 528.741 125.08 528.741 137.736V176.208C528.741 188.808 525.773 198.104 519.837 204.096C513.901 210.032 504.633 213 492.033 213H471.873ZM471.873 200.652H492.033C498.137 200.652 502.953 199.896 506.481 198.384C510.065 196.872 512.613 194.352 514.125 190.824C515.637 187.24 516.393 182.368 516.393 176.208V137.736C516.393 131.632 515.637 126.816 514.125 123.288C512.613 119.704 510.065 117.156 506.481 115.644C502.953 114.076 498.137 113.292 492.033 113.292H471.789C465.685 113.236 460.869 113.964 457.341 115.476C453.813 116.932 451.265 119.452 449.697 123.036C448.185 126.564 447.429 131.408 447.429 137.568V176.208C447.429 182.368 448.185 187.24 449.697 190.824C451.209 194.352 453.729 196.872 457.257 198.384C460.841 199.896 465.713 200.652 471.873 200.652ZM592.459 213C579.859 213 570.563 210.032 564.571 204.096C558.635 198.104 555.667 188.808 555.667 176.208V137.568C555.667 124.856 558.635 115.56 564.571 109.68C570.563 103.744 579.831 100.832 592.375 100.944H612.619C625.219 100.944 634.487 103.912 640.423 109.848C646.359 115.784 649.327 125.08 649.327 137.736V176.208C649.327 188.808 646.359 198.104 640.423 204.096C634.487 210.032 625.219 213 612.619 213H592.459ZM592.459 200.652H612.619C618.723 200.652 623.539 199.896 627.067 198.384C630.651 196.872 633.199 194.352 634.711 190.824C636.223 187.24 636.979 182.368 636.979 176.208V137.736C636.979 131.632 636.223 126.816 634.711 123.288C633.199 119.704 630.651 117.156 627.067 115.644C623.539 114.076 618.723 113.292 612.619 113.292H592.375C586.271 113.236 581.455 113.964 577.927 115.476C574.399 116.932 571.851 119.452 570.283 123.036C568.771 126.564 568.015 131.408 568.015 137.568V176.208C568.015 182.368 568.771 187.24 570.283 190.824C571.795 194.352 574.315 196.872 577.843 198.384C581.427 199.896 586.299 200.652 592.459 200.652ZM685.913 213C681.769 213 679.697 210.928 679.697 206.784V107.16C679.697 103.016 681.769 100.944 685.913 100.944C690.001 100.944 692.045 103.016 692.045 107.16V149.832L737.237 103.296C740.093 100.272 742.977 100.216 745.889 103.128C748.913 105.984 748.969 108.896 746.057 111.864L709.685 149.328L752.525 202.5C755.045 205.748 754.765 208.632 751.685 211.152C748.493 213.784 745.609 213.504 743.033 210.312L701.033 158.316L692.045 167.556V206.784C692.045 210.928 690.001 213 685.913 213ZM804.553 212.916C794.865 212.916 787.417 210.9 782.209 206.868C777.057 202.78 773.977 196.452 772.969 187.884C772.801 185.812 773.249 184.244 774.313 183.18C775.433 182.06 777.001 181.5 779.017 181.5C781.033 181.5 782.517 182.004 783.469 183.012C784.477 184.02 785.121 185.532 785.401 187.548C786.073 192.476 787.837 195.892 790.693 197.796C793.605 199.644 798.225 200.568 804.553 200.568H828.745C836.249 200.568 841.373 199.196 844.117 196.452C846.917 193.652 848.317 188.584 848.317 181.248C848.317 173.8 846.889 168.676 844.033 165.876C841.233 163.02 836.137 161.592 828.745 161.592H807.241C796.881 161.592 789.209 159.1 784.225 154.116C779.297 149.132 776.833 141.488 776.833 131.184C776.833 120.88 779.269 113.264 784.141 108.336C789.069 103.408 796.713 100.944 807.073 100.944H828.241C837.313 100.944 844.285 102.876 849.157 106.74C854.085 110.548 857.053 116.456 858.061 124.464C858.285 126.536 857.837 128.132 856.717 129.252C855.653 130.316 854.085 130.848 852.013 130.848C850.053 130.848 848.569 130.344 847.561 129.336C846.553 128.272 845.937 126.76 845.713 124.8C845.041 120.488 843.361 117.492 840.673 115.812C838.041 114.132 833.897 113.292 828.241 113.292H807.073C800.129 113.292 795.397 114.58 792.877 117.156C790.413 119.676 789.181 124.352 789.181 131.184C789.181 138.016 790.441 142.748 792.961 145.38C795.537 147.956 800.297 149.244 807.241 149.244H828.745C839.609 149.244 847.645 151.848 852.853 157.056C858.061 162.264 860.665 170.328 860.665 181.248C860.665 192.112 858.061 200.12 852.853 205.272C847.645 210.368 839.609 212.916 828.745 212.916H804.553Z" fill="url(#paint0_linear_1604_4452)"/>
<defs>
<linearGradient id="paint0_linear_1604_4452" x1="308.056" y1="110.5" x2="861.462" y2="235.248" gradientUnits="userSpaceOnUse">
<stop stop-color="#72BE44"/>
<stop offset="1" stop-color="#DEE34D"/>
</linearGradient>
</defs>
</svg>
