<svg xmlns="http://www.w3.org/2000/svg" viewBox="0 0 301.2 301.2">
  <defs>
    <style>.cls-1{fill:#f9ec31;}.cls-2{fill:#72be44;}.cls-3{fill:#231f20;}.cls-4{fill:#dee34d;}</style>
  </defs>
  <g id="Layer_2">
    <g id="Layer_1-2">
      <!-- <path class="cls-1" d="M150.6,301.2A150.66,150.66,0,0,1,92,11.8a151.41,151.41,0,0,1,117.2,0,150.72,150.72,0,0,1,0,277.6A148.92,148.92,0,0,1,150.6,301.2Zm0-290.4a139.56,139.56,0,0,0-99,41,141.43,141.43,0,0,0-30,44.5A140.09,140.09,0,0,0,205.1,279.8a138.15,138.15,0,0,0,44.5-30,141.43,141.43,0,0,0,30-44.5,139.9,139.9,0,0,0-30-153.5,139.56,139.56,0,0,0-99-41Z"/> -->
      <path class="cls-2" d="M202.1,109.2c-3.2-7-27.6-12.5-57.3-12.5s-48,5.5-51.2,12.5a2.82,2.82,0,0,0-.4,2L109,222.9a.76.76,0,0,0,.1.4c.3,4,3.6,8.4,13.4,10.7L109.3,133.3s3.1,1.9,13.9,1.6c1,14.5,8.1,83.5,9.8,100.3,3.8.3,7.8.5,11.9.5,22.8,0,41.3-5.5,41.8-12.4,0-.1.1-.2.1-.4l15.8-111.7A4.55,4.55,0,0,0,202.1,109.2Z"/>
      <rect class="cls-3" x="97.1" y="75.3" width="15.4" height="15.4"/>
      <rect class="cls-3" x="82.1" y="59.9" width="15.4" height="15.4"/>
      <rect class="cls-3" x="141.5" y="116" width="15.4" height="15.4"/>
      <rect class="cls-3" x="82.1" y="203.7" width="15.4" height="15.4"/>
      <rect class="cls-3" x="154.9" y="245.3" width="15.4" height="15.4"/>
      <rect class="cls-3" x="160.8" y="177.6" width="15.4" height="15.4"/>
      <rect class="cls-3" x="212.2" y="121.1" width="15.4" height="15.4"/>
      <rect class="cls-3" x="227.6" y="136.5" width="15.4" height="15.4"/>
      <rect class="cls-3" x="54.7" y="146.4" width="15.4" height="15.4"/>
      <rect class="cls-2" x="70.2" y="131" width="30.9" height="15.4"/>
      <rect class="cls-2" x="97.1" y="59.9" width="30.9" height="15.4"/>
      <rect class="cls-2" x="139.4" y="58.7" width="15.4" height="15.4"/>
      <rect class="cls-2" x="54.7" y="99.8" width="15.4" height="15.4"/>
      <rect class="cls-2" x="212.2" y="167.5" width="15.4" height="15.4"/>
      <rect class="cls-4" x="145.3" y="193" width="15.4" height="15.4"/>
      <rect class="cls-4" x="66.6" y="203.7" width="15.4" height="15.4"/>
      <rect class="cls-4" x="227.6" y="151.8" width="15.4" height="15.4"/>
      <rect class="cls-4" x="227.6" y="106.4" width="15.4" height="15.4"/>
      <rect class="cls-4" x="82.1" y="44.4" width="15.4" height="15.4"/>
      <rect class="cls-4" x="170" y="245.3" width="15.4" height="15.4"/>
      <rect class="cls-4" x="54.7" y="115" width="15.4" height="15.4"/>
      <rect class="cls-4" x="156.6" y="131.2" width="15.4" height="15.4"/>
      <rect class="cls-2" x="112.6" y="85.6" width="15.4" height="20.6"/>
      <path class="cls-2" d="M107.8,149.4s5.9,5.9,19.9,3.8c7.4,3.4,3.6,5.7,3.6,5.7l1,14.3c.1,1.2-11.9,2.4-23-3.3C99.2,164.8,107.8,149.4,107.8,149.4Z"/>
      <rect class="cls-2" x="82.1" y="188.3" width="26.5" height="15.4"/>
      <rect class="cls-3" x="89.4" y="146.4" width="15.4" height="15.4"/>
      <path class="cls-3" d="M211.5,91.6a59.53,59.53,0,0,0-15-5.3c-12.7-3-29.5-4.6-47.3-4.6s-34.7,1.6-47.3,4.6a61,61,0,0,0-15,5.3c-4.5,2.5-6.8,5.5-6.8,8.9a8.81,8.81,0,0,0,.2,1.7L99,231.3c.1,3.6,2.8,6.2,5.1,7.7a38,38,0,0,0,11,4.8c9.2,2.7,21.3,4.2,34.2,4.2s25-1.5,34.2-4.2a40.93,40.93,0,0,0,11-4.8c2.3-1.6,5-4.2,5.1-7.8l.6-5.9,18.1-123.1a5.54,5.54,0,0,0,.2-1.8C218.3,97.2,216,94.2,211.5,91.6ZM116.9,237.7c-9.4-2.8-11.4-5.7-11.4-6.6s2.1-3.9,11.4-6.6c8.6-2.5,20.1-3.9,32.3-3.9a140.37,140.37,0,0,1,22.3,1.7l-1.2,12.5h0s-.5,5.4-5.3,6h0c-5,.5-10.3.8-15.8.8C136.9,241.6,125.5,240.2,116.9,237.7Zm32.3-23.6c-12.8,0-25,1.5-34.2,4.2a37.87,37.87,0,0,0-10.8,4.7L88.7,115.9l.1.2c-.7-5.2,2.2-4.6,3-4.4a75.64,75.64,0,0,0,10,3c12.7,3,29.5,4.6,47.3,4.6a265.33,265.33,0,0,0,32.1-1.9L172,215.9A136,136,0,0,0,149.2,214.1Zm32.3,23.6c-1.6.5-3.3.9-5.1,1.3l.6-6.4,7.9,3.9A32.38,32.38,0,0,1,181.5,237.7Zm11.5-6.8v.2a3.17,3.17,0,0,1-1.1,1.7l-14.2-7,.6-5.9,15,7.4Zm1.2-10.3L178.9,213l.4-4.2,15.6,7.7Zm1.6-10.9-15.9-7.9.4-4.2,16.1,8Zm1.6-10.9L181,190.7l.5-5.6,16.7,8.3Zm1.8-12.1-17.1-8.5.4-4.9,17.3,8.6Zm1.7-11.5-17.7-8.7.6-6,18,8.9Zm1.8-12.5-18.3-9.1.4-4.3,18.5,9.2Zm1.6-10.9-18.9-9.3.4-4.8,19.1,9.5Zm1.7-11.4-19.5-9.6.4-4.2,19.7,9.7Zm1.6-10.9-20-9.9.3-3.3c.8-.1,1.5-.3,2.2-.4l18.1,9Zm1.6-11.3-9.1-4.5a52.24,52.24,0,0,0,10.3-3.8Zm2.6-17.3c-.6,1.3-4.3,4.6-16.7,7.5-12.2,2.9-28.5,4.5-45.9,4.5s-33.7-1.6-45.9-4.5c-12.5-2.9-16.2-6.2-16.7-7.5l-.1-.5c.2-1.2,3.6-4.6,16.8-7.7,12.2-2.9,28.5-4.5,45.9-4.5s33.7,1.6,45.9,4.5c13.2,3.1,16.6,6.5,16.8,7.7Z"/>
      <path class="cls-2" d="M158.3,107.5s-25.1-50.2,17.8-67.3C194.2,80.2,158.3,107.5,158.3,107.5Z"/>
      <path class="cls-2" d="M158.6,106.5S171.3,56.2,217.8,75C206.1,113.7,158.6,106.5,158.6,106.5Z"/>
      <path class="cls-4" d="M212.6,77.3,168.8,98.6C168.7,98.6,188.6,73,212.6,77.3Z"/>
      <path class="cls-4" d="M172.8,56.4,161,97.3S181.8,80.1,172.8,56.4Z"/>
    </g>
  </g>
</svg>
